<svg width="222" height="80" viewBox="0 0 222 80" fill="none" xmlns="http://www.w3.org/2000/svg">
<path d="M125.812 70.7058C106.786 71.9544 88.1935 72.1157 70.1737 70.4388C54.8179 69.016 40.9026 66.3773 30.7504 61.5021C27.2475 59.8199 24.5873 58.2878 21.8231 56.841C12.3077 51.9141 5.84829 45.947 2.9433 39.4005C1.38237 36.3773 0.903159 33.2103 1.52148 30.0024C2.68106 25.4478 6.34903 21.2353 14.4489 17.7156C19.833 15.4051 26.4995 13.7653 33.5769 13.0106C48.606 11.2785 63.058 11.4939 77.1501 12.9442C80.6792 13.3022 84.3392 13.5313 87.7956 13.9435C96.2781 14.985 104.794 14.3187 113.32 12.7035C118.954 11.6339 124.46 10.3825 130.107 9.3174C143.123 6.85972 155.871 6.76388 168.459 8.03049C194.585 10.6499 209.045 18.2699 216.393 28.9645C219.574 33.3421 220.389 38.0986 218.782 42.8993C215.867 50.9605 205.503 56.9054 188.571 61.119C176.498 64.085 163.767 66.3809 150.72 67.9451C142.443 68.9325 134.119 69.7816 125.812 70.7058Z" fill="url(#paint0_linear_92_6102)"/>
<path d="M44.7436 33.7197V40.776C44.7436 47.8322 41.9211 50.6547 34.8648 50.6547H26.3973C19.3411 50.6547 16.5186 47.8322 16.5186 40.776V32.3084C16.5186 25.2522 19.3411 22.4297 26.3973 22.4297H33.4536" stroke="#6235CB" stroke-width="1.78263" stroke-linecap="round" stroke-linejoin="round"/>
<path d="M44.7431 33.7197H39.0981C34.8644 33.7197 33.4531 32.3084 33.4531 28.0747V22.4297L44.7431 33.7197Z" stroke="#6235CB" stroke-width="1.78263" stroke-linecap="round" stroke-linejoin="round"/>
<path d="M30.0205 43.9502H38.0114" stroke="#6235CB" stroke-width="1.42868" stroke-linecap="round" stroke-linejoin="round"/>
<path d="M30.0205 38.3555H38.0114" stroke="#6235CB" stroke-width="1.42868" stroke-linecap="round" stroke-linejoin="round"/>
<path d="M23.6279 38.356L24.427 39.1551L26.8243 36.7578" stroke="#6235CB" stroke-width="1.42868" stroke-linecap="round" stroke-linejoin="round"/>
<path d="M23.6279 43.9488L24.427 44.7479L26.8243 42.3506" stroke="#6235CB" stroke-width="1.42868" stroke-linecap="round" stroke-linejoin="round"/>
<path d="M76.8266 45.5757C75.2773 46.1357 73.6626 46.4157 71.9826 46.4157C69.1453 46.4157 67.008 45.6691 65.5706 44.1757C64.1333 42.6824 63.4146 40.5544 63.4146 37.7917C63.4146 34.8611 64.1146 32.6211 65.5146 31.0717C66.9146 29.5224 69.0613 28.7477 71.9546 28.7477C73.784 28.7477 75.3986 29.0277 76.7986 29.5877V33.2557C75.3053 32.6024 73.784 32.2757 72.2346 32.2757C70.536 32.2757 69.2853 32.7424 68.4826 33.6757C67.6986 34.5904 67.3066 35.9624 67.3066 37.7917C67.3066 41.1704 68.968 42.8597 72.2906 42.8597C73.8026 42.8597 75.3146 42.5424 76.8266 41.9077V45.5757ZM83.6687 39.4997V46.1357H79.8327V28.9997H83.6687V35.6077H90.1927V28.9997H93.9727V46.1357H90.1927V39.4997H83.6687ZM102.397 42.1037L100.969 46.1357H96.9654L103.125 28.9997H107.241L113.401 46.1357H109.453L107.969 42.1037H102.397ZM107.493 39.1637L105.197 32.9757L102.873 39.1637H107.493ZM127.872 42.9157V46.1357H116.364V28.9997H120.2V42.9157H127.872ZM141.927 42.9157V46.1357H130.419V28.9997H134.255V42.9157H141.927ZM156.261 43.0557V46.1357H144.473V28.9997H156.261V32.0797H148.309V35.9717H155.309V39.1637H148.309V43.0557H156.261ZM162.774 35.7477V46.1357H158.938V28.9997H162.214L169.326 39.4157V28.9997H173.162V46.1357H169.858L162.774 35.7477ZM190.63 44.9037C189.099 45.9117 187.083 46.4157 184.582 46.4157C181.8 46.4157 179.691 45.6691 178.254 44.1757C176.835 42.6824 176.126 40.5544 176.126 37.7917C176.126 34.8797 176.844 32.6491 178.282 31.0997C179.738 29.5317 181.912 28.7477 184.806 28.7477C186.784 28.7477 188.418 28.9811 189.706 29.4477V33.0597C188.399 32.5371 186.859 32.2757 185.086 32.2757C181.707 32.2757 180.018 34.1144 180.018 37.7917C180.018 39.4904 180.391 40.7597 181.138 41.5997C181.903 42.4397 183.051 42.8597 184.582 42.8597C185.627 42.8597 186.579 42.7011 187.438 42.3837V39.0237H183.882V36.4197H190.63V44.9037ZM205.562 43.0557V46.1357H193.774V28.9997H205.562V32.0797H197.61V35.9717H204.61V39.1637H197.61V43.0557H205.562Z" fill="url(#paint1_linear_92_6102)"/>
<line x1="54.5189" y1="53.8353" x2="54.5189" y2="19.2522" stroke="url(#paint2_linear_92_6102)" stroke-width="1.06958" stroke-linecap="round"/>
<defs>
<linearGradient id="paint0_linear_92_6102" x1="-6.70564" y1="2.33083" x2="247.526" y2="40.6573" gradientUnits="userSpaceOnUse">
<stop stop-color="#F9D342"/>
<stop offset="1" stop-color="#FADC68"/>
</linearGradient>
<linearGradient id="paint1_linear_92_6102" x1="227.611" y1="49.023" x2="50.7738" y2="20.5009" gradientUnits="userSpaceOnUse">
<stop stop-color="#9468FA"/>
<stop offset="0.317708" stop-color="#7942F9"/>
<stop offset="0.65625" stop-color="#6235CB"/>
<stop offset="1" stop-color="#4B289D"/>
</linearGradient>
<linearGradient id="paint2_linear_92_6102" x1="55.0537" y1="18.7175" x2="55.0537" y2="54.3701" gradientUnits="userSpaceOnUse">
<stop stop-color="#7942F9" stop-opacity="0.4"/>
<stop offset="0.17882" stop-color="#7942F9"/>
<stop offset="0.505208" stop-color="#7942F9"/>
<stop offset="0.819445" stop-color="#7942F9"/>
<stop offset="1" stop-color="#7942F9" stop-opacity="0.4"/>
</linearGradient>
</defs>
</svg>
