<svg width="48" height="48" viewBox="0 0 48 48" fill="none" xmlns="http://www.w3.org/2000/svg">
<path d="M4 24H18C21.4 24 24 26.6 24 30C24 33.4 21.4 36 18 36H6C4.8 36 4 35.2 4 34V14C4 12.8 4.8 12 6 12H16C19.4 12 22 14.6 22 18C22 21.4 19.4 24 16 24H4Z" stroke="#7942F9" stroke-width="1.5" stroke-miterlimit="10"/>
<path d="M28 28H44C44 23.6 40.4 20 36 20C31.6 20 28 23.6 28 28ZM28 28C28 32.4 31.6 36 36 36H39.4" stroke="#7942F9" stroke-width="1.5" stroke-miterlimit="10" stroke-linecap="round" stroke-linejoin="round"/>
<path d="M39 15H33" stroke="#7942F9" stroke-width="1.5" stroke-miterlimit="10" stroke-linecap="round" stroke-linejoin="round"/>
</svg>
