<svg width="48" height="48" viewBox="0 0 48 48" fill="none" xmlns="http://www.w3.org/2000/svg">
<path d="M33.04 11.3008L26.84 6.50078C26.04 5.70078 24.24 5.30078 23.04 5.30078H15.44C13.04 5.30078 10.44 7.10078 9.83995 9.50078L5.03995 24.1008C4.03995 26.9008 5.83995 29.3008 8.83995 29.3008H16.84C18.04 29.3008 19.04 30.3008 18.84 31.7008L17.84 38.1008C17.44 39.9008 18.64 41.9008 20.44 42.5008C22.04 43.1008 24.04 42.3008 24.84 41.1008L33.04 28.9008" stroke="#7942F9" stroke-width="1.5" stroke-miterlimit="10"/>
<path d="M43.24 11.3V30.9C43.24 33.7 42.04 34.7 39.24 34.7H37.24C34.44 34.7 33.24 33.7 33.24 30.9V11.3C33.24 8.5 34.44 7.5 37.24 7.5H39.24C42.04 7.5 43.24 8.5 43.24 11.3Z" stroke="#7942F9" stroke-width="1.5" stroke-linecap="round" stroke-linejoin="round"/>
</svg>
