<svg width="48" height="48" viewBox="0 0 48 48" fill="none" xmlns="http://www.w3.org/2000/svg">
<path d="M31.16 23.9998C31.16 27.9598 27.96 31.1598 24 31.1598C20.04 31.1598 16.84 27.9598 16.84 23.9998C16.84 20.0398 20.04 16.8398 24 16.8398C27.96 16.8398 31.16 20.0398 31.16 23.9998Z" stroke="#7942F9" stroke-width="1.5" stroke-linecap="round" stroke-linejoin="round"/>
<path d="M24 40.5395C31.06 40.5395 37.64 36.3795 42.22 29.1795C44.02 26.3595 44.02 21.6195 42.22 18.7995C37.64 11.5995 31.06 7.43945 24 7.43945C16.94 7.43945 10.36 11.5995 5.77999 18.7995C3.97999 21.6195 3.97999 26.3595 5.77999 29.1795C10.36 36.3795 16.94 40.5395 24 40.5395Z" stroke="#7942F9" stroke-width="1.5" stroke-linecap="round" stroke-linejoin="round"/>
</svg>
