<svg width="24" height="24" viewBox="0 0 24 24" fill="none" xmlns="http://www.w3.org/2000/svg">
<path d="M15.5799 11.9999C15.5799 13.9799 13.9799 15.5799 11.9999 15.5799C10.0199 15.5799 8.41992 13.9799 8.41992 11.9999C8.41992 10.0199 10.0199 8.41992 11.9999 8.41992C13.9799 8.41992 15.5799 10.0199 15.5799 11.9999Z" stroke="#7942F9" stroke-width="1.56667" stroke-linecap="round" stroke-linejoin="round"/>
<path d="M12.0008 20.2707C15.5308 20.2707 18.8208 18.1907 21.1108 14.5907C22.0108 13.1807 22.0108 10.8107 21.1108 9.4007C18.8208 5.8007 15.5308 3.7207 12.0008 3.7207C8.47082 3.7207 5.18082 5.8007 2.89082 9.4007C1.99082 10.8107 1.99082 13.1807 2.89082 14.5907C5.18082 18.1907 8.47082 20.2707 12.0008 20.2707Z" stroke="#7942F9" stroke-width="1.56667" stroke-linecap="round" stroke-linejoin="round"/>
</svg>
