<svg width="24" height="24" viewBox="0 0 24 24" fill="none" xmlns="http://www.w3.org/2000/svg">
<path d="M12 2H8.69999C6.79999 2 5.29999 3.5 5.29999 5.3C5.29999 7.1 6.79999 8.6 8.59999 8.6H12V2Z" stroke="#7942F9" stroke-width="1.5" stroke-miterlimit="10"/>
<path d="M12 8.69922H8.69999C6.89999 8.69922 5.39999 10.1992 5.39999 11.9992C5.39999 13.7992 6.89999 15.2992 8.69999 15.2992H12V8.69922Z" stroke="#7942F9" stroke-width="1.5" stroke-miterlimit="10"/>
<path d="M12 15.3008H8.69999C6.89999 15.3008 5.39999 16.8008 5.39999 18.6008C5.39999 20.4008 6.89999 21.9008 8.69999 21.9008C10.5 21.9008 12 20.4008 12 18.6008V15.3008Z" stroke="#7942F9" stroke-width="1.5" stroke-miterlimit="10"/>
<path d="M12 2H15.3C17.1 2 18.6 3.5 18.6 5.3C18.6 7.1 17.1 8.6 15.3 8.6H12V2Z" stroke="#7942F9" stroke-width="1.5" stroke-miterlimit="10"/>
<path d="M15.3 8.69922C17.1 8.69922 18.6 10.1992 18.6 11.9992C18.6 13.7992 17.1 15.2992 15.3 15.2992C13.5 15.2992 12 13.7992 12 11.9992C12 10.1992 13.5 8.69922 15.3 8.69922Z" stroke="#7942F9" stroke-width="1.5" stroke-miterlimit="10"/>
</svg>
