<svg width="48" height="48" viewBox="0 0 48 48" fill="none" xmlns="http://www.w3.org/2000/svg">
<path d="M24 4H17.4C13.6 4 10.6 7 10.6 10.6C10.6 14.2 13.6 17.2 17.2 17.2H24V4Z" stroke="#7942F9" stroke-width="1.5" stroke-miterlimit="10"/>
<path d="M24 17.4004H17.4C13.8 17.4004 10.8 20.4004 10.8 24.0004C10.8 27.6004 13.8 30.6004 17.4 30.6004H24V17.4004Z" stroke="#7942F9" stroke-width="1.5" stroke-miterlimit="10"/>
<path d="M24 30.5996H17.4C13.8 30.5996 10.8 33.5996 10.8 37.1996C10.8 40.7996 13.8 43.7996 17.4 43.7996C21 43.7996 24 40.7996 24 37.1996V30.5996Z" stroke="#7942F9" stroke-width="1.5" stroke-miterlimit="10"/>
<path d="M24 4H30.6C34.2 4 37.2 7 37.2 10.6C37.2 14.2 34.2 17.2 30.6 17.2H24V4Z" stroke="#7942F9" stroke-width="1.5" stroke-miterlimit="10"/>
<path d="M30.6 17.4004C34.2 17.4004 37.2 20.4004 37.2 24.0004C37.2 27.6004 34.2 30.6004 30.6 30.6004C27 30.6004 24 27.6004 24 24.0004C24 20.4004 27 17.4004 30.6 17.4004Z" stroke="#7942F9" stroke-width="1.5" stroke-miterlimit="10"/>
</svg>
