<svg width="76" height="79" viewBox="0 0 76 79" fill="none" xmlns="http://www.w3.org/2000/svg">
<path fill-rule="evenodd" clip-rule="evenodd" d="M40.0474 48.9554C40.5786 49.353 41.1177 49.7475 41.6018 50.055C50.19 55.5825 61.8911 59.353 74.0698 59.4775C74.5125 59.4792 74.9608 59.2116 75.0603 58.8552C75.1599 58.4988 74.8861 58.2225 74.4428 58.221C62.5546 58.0457 51.1662 54.3773 42.7943 48.9861C42.5204 48.817 42.2224 48.603 41.9217 48.3901C42.879 47.9934 43.5966 47.4691 44.1247 46.9056C44.8972 46.0407 45.2601 45.0021 45.2821 43.9251C45.306 42.4199 44.6907 40.8767 43.7246 39.6194C42.968 38.6612 41.9855 37.8908 40.9925 37.5518C40.1831 37.254 39.3543 37.2305 38.5709 37.4578C37.7469 37.6997 36.9355 38.2575 36.2899 39.2907C35.1522 41.0348 35.2657 42.8119 36.092 44.4934C36.6974 45.7196 37.6858 46.8618 38.765 47.8647C38.1813 47.9136 37.5379 47.9303 36.8324 47.916C31.4902 47.6927 25.4669 44.7206 19.9069 40.6735C11.4568 34.5085 4.10952 25.81 2.06866 20.2342C1.96482 19.9507 1.50336 19.7953 1.06244 19.9533C0.621529 20.1113 0.367164 20.5233 0.471003 20.8068C2.56345 26.5246 10.0258 35.3954 18.6593 41.7084C24.4715 45.9324 30.8404 48.995 36.4148 49.1885C37.8115 49.2223 39.0248 49.1616 40.0474 48.9554ZM40.7847 47.5151C41.6999 47.2405 42.3727 46.8391 42.843 46.3498C43.3993 45.7227 43.6169 44.9498 43.6397 44.1933C43.6653 42.9013 43.1092 41.5503 42.2714 40.4608C41.6817 39.7101 40.9404 39.0673 40.1651 38.7572C39.7306 38.5922 39.3011 38.5321 38.8668 38.6343C38.441 38.7869 38.0759 39.1319 37.7197 39.6337C36.8244 41.0772 36.9993 42.5111 37.6504 43.8278C38.3251 45.1895 39.556 46.5123 40.7847 47.5151Z" fill="#7942F9"/>
<path fill-rule="evenodd" clip-rule="evenodd" d="M74.371 58.2614C69.6364 58.6221 64.494 60.1978 60.0868 62.2586C59.6661 62.4629 59.457 62.8585 59.614 63.1229C59.7873 63.435 60.2718 63.5288 60.6918 63.3248C64.8648 61.4014 69.7125 59.8776 74.1926 59.5546C74.6386 59.5016 75.0495 59.1939 75.1051 58.8532C75.1431 58.4655 74.817 58.2084 74.371 58.2614Z" fill="#7942F9"/>
<path fill-rule="evenodd" clip-rule="evenodd" d="M74.6057 58.1979C70.4716 57.3812 67.8405 54.422 66.2028 51.5346C66.0458 51.2702 65.5607 51.1768 65.14 51.381C64.72 51.585 64.5116 51.9807 64.6856 52.2925C66.4567 55.3993 69.4041 58.5653 73.9151 59.4607C74.3242 59.5278 74.8104 59.3 75.0051 58.963C75.2003 58.6257 75.0141 58.2653 74.6057 58.1979Z" fill="#7942F9"/>
</svg>
