<svg width="14" height="16" viewBox="0 0 14 16" fill="none" xmlns="http://www.w3.org/2000/svg">
<path fill-rule="evenodd" clip-rule="evenodd" d="M5.5335 3.02787C5.49232 2.78357 5.46131 2.54204 5.44127 2.30048C5.41107 1.93814 5.42974 1.57303 5.41904 1.21069C5.41437 1.05698 5.39598 0.656212 5.40339 0.598567C5.47064 0.0962349 5.87607 0.0193659 5.99466 0.00564097C6.05203 -0.00259399 6.6411 -0.0684442 6.76819 0.584863C6.92411 1.38365 6.97407 2.18792 6.91889 2.97574C7.04763 3.64551 7.26779 4.31253 7.55848 4.91643C8.71522 7.31829 10.9194 7.55162 13.3076 7.52966C13.6749 7.52417 13.9798 7.81239 13.999 8.17747C14.0183 8.5453 13.7449 8.86372 13.3792 8.89666C12.0443 9.02567 9.67595 10.0962 8.85712 11.2107C8.68583 11.444 8.5862 12.0068 8.45444 12.5585C8.27052 13.3243 8.05175 14.082 7.80662 14.4004C7.76984 14.4498 7.32268 14.9549 7.18927 15.029C6.86866 15.2047 6.61201 15.1031 6.46625 15.0097C6.32049 14.9164 6.15551 14.7325 6.08963 14.4278C6.02073 14.1094 6.07893 13.4561 6.06822 13.3161C6.02924 12.8083 5.92769 11.8118 5.72044 10.9554C5.60872 10.4942 5.48958 10.0688 5.29249 9.8574C4.56287 9.07508 3.39626 9.19038 2.41382 9.3194C2.30101 9.33312 2.18819 9.3496 2.07564 9.36333C1.6757 9.48136 1.25104 9.56918 0.802234 9.62134C0.124497 9.70094 0.0130577 9.07783 0.00701878 9.03665C-0.00560816 8.94607 -0.0525524 8.47943 0.45829 8.29277C0.514013 8.27356 0.925216 8.18297 1.0836 8.14728C1.3043 8.09787 1.52746 8.05945 1.75145 8.02377C4.0652 7.30458 5.32186 5.28425 5.5335 3.02787ZM6.32763 5.52309C7.20108 7.32929 8.52663 8.20218 10.0979 8.59746H10.0976C9.11653 9.11077 8.22413 9.75312 7.75117 10.3982C7.57165 10.6425 7.40695 11.1338 7.25845 11.6856C7.17802 11.1723 7.06933 10.626 6.92576 10.1593C6.76244 9.62682 6.54255 9.18491 6.29715 8.92139C5.82337 8.41356 5.2288 8.13083 4.58949 7.99083C5.35479 7.31282 5.93509 6.46737 6.32763 5.52309Z" fill="#F9D342"/>
</svg>
