<svg width="27" height="29" viewBox="0 0 27 29" fill="none" xmlns="http://www.w3.org/2000/svg">
<path fill-rule="evenodd" clip-rule="evenodd" d="M10.6097 5.80552C10.5307 5.3371 10.4713 4.874 10.4329 4.41084C10.375 3.71611 10.4108 3.01607 10.3902 2.32133C10.3813 2.0266 10.346 1.25819 10.3602 1.14767C10.4892 0.184517 11.2665 0.0371314 11.4939 0.0108157C11.6039 -0.00497361 12.7334 -0.131232 12.977 1.12139C13.276 2.65296 13.3718 4.19503 13.266 5.70555C13.5128 6.98975 13.9349 8.26866 14.4923 9.42655C16.7102 14.0318 20.9365 14.4792 25.5154 14.437C26.2196 14.4265 26.8043 14.9791 26.8412 15.6791C26.878 16.3844 26.3538 16.9949 25.6528 17.0581C23.0933 17.3054 18.5523 19.3581 16.9823 21.4949C16.6538 21.9423 16.4628 23.0212 16.2102 24.0791C15.8575 25.5475 15.4381 27.0001 14.9681 27.6107C14.8976 27.7054 14.0402 28.6738 13.7844 28.8159C13.1697 29.1528 12.6776 28.958 12.3981 28.7791C12.1186 28.6001 11.8023 28.2475 11.676 27.6633C11.5439 27.0527 11.6555 25.8001 11.635 25.5317C11.5602 24.558 11.3655 22.6475 10.9681 21.0054C10.7539 20.1212 10.5255 19.3054 10.1476 18.9002C8.74866 17.4002 6.51184 17.6212 4.62816 17.8686C4.41185 17.8949 4.19554 17.9265 3.97975 17.9528C3.21291 18.1792 2.39869 18.3475 1.53817 18.4475C0.238705 18.6002 0.0250364 17.4054 0.0134575 17.3265C-0.0107528 17.1528 -0.100762 16.2581 0.878705 15.9002C0.985546 15.8634 1.77397 15.6897 2.07765 15.6212C2.50081 15.5265 2.92869 15.4529 3.35816 15.3844C7.79444 14.0055 10.2039 10.1318 10.6097 5.80552ZM12.1323 10.5897C13.807 14.0529 16.3486 15.7265 19.3612 16.4844H19.3607C17.4797 17.4686 15.7686 18.7002 14.8618 19.937C14.5176 20.4055 14.2018 21.3475 13.917 22.4054C13.7628 21.4212 13.5544 20.3738 13.2792 19.4791C12.966 18.458 12.5444 17.6107 12.0739 17.1055C11.1655 16.1318 10.0255 15.5897 8.7997 15.3213C10.2671 14.0213 11.3797 12.4003 12.1323 10.5897Z" fill="#F9D342"/>
</svg>
