<svg width="124" height="10" viewBox="0 0 124 10" fill="none" xmlns="http://www.w3.org/2000/svg">
<path fill-rule="evenodd" clip-rule="evenodd" d="M33.0502 5.88897C27.7229 6.79265 21.5722 7.69199 15.6552 7.91655C10.5978 8.10822 5.71285 7.81052 1.71444 6.54389C1.15081 6.36555 0.444987 6.48815 0.140169 6.8182C-0.165113 7.14797 0.0449119 7.56095 0.608545 7.73957C4.97032 9.12092 10.2888 9.48223 15.8053 9.2729C21.8286 9.04453 28.0904 8.1392 33.5246 7.22246C34.1552 7.96983 35.4609 8.66662 37.761 9.18072C41.2938 9.97049 46.1174 9.9607 51.1989 9.51566C58.5689 8.87052 66.497 7.33203 71.5943 6.23886C71.8034 6.19427 72.1147 6.12332 72.4957 6.0298C72.6119 6.17987 72.742 6.32776 72.886 6.47294C74.136 7.73821 76.3478 8.76124 78.6014 9.12663C92.8943 11.4435 109.576 8.66744 123.158 6.40823C123.771 6.30573 124.129 5.92948 123.957 5.56871C123.78 5.20795 123.139 4.99833 122.521 5.10083C109.32 7.29697 93.1127 10.0678 79.2194 7.81649C77.5094 7.53919 75.8459 6.75296 74.898 5.79273C74.7912 5.68561 74.6982 5.57605 74.6099 5.46486C76.4825 4.92194 78.685 4.16506 79.8699 3.3549C81.0873 2.52435 81.3893 1.63779 80.3299 0.800443C79.4192 0.0846181 78.0391 0.0237187 76.6033 0.394817C75.056 0.792286 73.4622 1.72151 72.9464 2.15759C71.9799 2.9721 71.6733 3.85568 71.8498 4.71722C71.3945 4.82977 71.0246 4.9135 70.7965 4.96244C65.8107 6.03142 58.0615 7.54029 50.8551 8.17129C46.2182 8.57746 41.8137 8.63155 38.5899 7.91111C37.215 7.60363 36.3065 7.24477 35.8135 6.82827C36.7865 6.65808 37.7247 6.49061 38.621 6.33075C40.3937 6.01457 44.0845 5.49123 46.7215 4.55846C48.8185 3.8168 50.2404 2.80791 50.1576 1.54318C50.1154 0.89342 49.4727 0.459785 48.45 0.216736C46.9217 -0.146206 44.2787 0.0294162 43.2946 0.151756C40.3096 0.522039 36.3256 2.05483 34.3545 3.782C33.5679 4.47118 33.0999 5.19217 33.0502 5.88897ZM35.5022 5.46431C36.3456 5.31587 37.1606 5.17015 37.9436 5.03041C39.5982 4.73516 43.0571 4.26618 45.5194 3.39512C46.8232 2.93404 47.8878 2.38161 47.8362 1.5951C47.832 1.53393 47.7284 1.51654 47.6368 1.49153C47.4951 1.45319 47.3329 1.42681 47.1601 1.40615C45.9905 1.26641 44.4195 1.40153 43.7764 1.48145C41.2719 1.7922 37.9403 3.08765 36.2866 4.53697C35.9371 4.84309 35.6588 5.15492 35.5022 5.46431ZM74.1453 4.09138C75.2372 3.7627 76.3803 3.36522 77.2817 2.93268C77.7603 2.70295 78.1646 2.46671 78.4202 2.22149C78.6339 2.01868 78.7175 1.81096 78.462 1.61032C78.3597 1.52903 78.2064 1.52741 78.0484 1.54263C77.8812 1.55895 77.7092 1.59374 77.5373 1.63859C76.4035 1.93058 75.2326 2.61269 74.8562 2.93268C74.4148 3.30378 74.1964 3.69636 74.1453 4.09138Z" fill="#F9D342"/>
</svg>
