<svg width="30" height="32" viewBox="0 0 30 32" fill="none" xmlns="http://www.w3.org/2000/svg">
<path fill-rule="evenodd" clip-rule="evenodd" d="M10.0376 29.8624C7.17302 29.0797 4.17391 28.6849 1.26459 28.3232C0.637966 28.2474 0.0561878 28.6705 0.011429 29.2667C-0.0780887 29.8632 0.369762 30.4088 0.951627 30.4847C3.77143 30.8328 6.6805 31.2054 9.41079 31.9589C9.99265 32.1223 10.6195 31.7859 10.7986 31.2072C10.9776 30.6289 10.6195 30.0262 10.0376 29.8624Z" fill="#7942F9"/>
<path fill-rule="evenodd" clip-rule="evenodd" d="M18.7209 18.7664C14.1107 14.186 8.91867 10.1952 4.39803 5.49198C3.9952 5.05273 3.27906 5.0292 2.83147 5.43925C2.38388 5.84975 2.3393 6.54 2.78689 6.97926C7.30753 11.696 12.4996 15.6999 17.1097 20.2937C17.5573 20.7225 18.2733 20.7286 18.7209 20.3068C19.1237 19.8854 19.1685 19.1952 18.7209 18.7664Z" fill="#7942F9"/>
<path fill-rule="evenodd" clip-rule="evenodd" d="M27.3593 1.14858C27.4936 3.77017 27.6276 6.39175 27.7618 9.01377C27.7618 9.61426 28.2992 10.0779 28.9258 10.0487C29.5525 10.0191 29.9998 9.50793 29.9998 8.90701C29.8655 6.28107 29.7315 3.65556 29.5972 1.03005C29.5525 0.429562 29.0153 -0.0310455 28.3886 0.00163711C27.8068 0.0343198 27.3145 0.548528 27.3593 1.14858Z" fill="#7942F9"/>
</svg>
