<svg width="48" height="48" viewBox="0 0 48 48" fill="none" xmlns="http://www.w3.org/2000/svg">
<path d="M14.96 36.7009L21.16 41.5009C21.96 42.3009 23.76 42.7009 24.96 42.7009H32.56C34.96 42.7009 37.56 40.9009 38.16 38.5009L42.96 23.9009C43.96 21.1009 42.16 18.7009 39.16 18.7009H31.16C29.96 18.7009 28.96 17.7009 29.16 16.3009L30.16 9.90091C30.56 8.10091 29.36 6.10091 27.56 5.50091C25.96 4.90091 23.96 5.70091 23.16 6.90091L14.96 19.1009" stroke="#7942F9" stroke-width="1.5" stroke-miterlimit="10"/>
<path d="M4.76001 36.7008V17.1008C4.76001 14.3008 5.96001 13.3008 8.76001 13.3008H10.76C13.56 13.3008 14.76 14.3008 14.76 17.1008V36.7008C14.76 39.5008 13.56 40.5008 10.76 40.5008H8.76001C5.96001 40.5008 4.76001 39.5008 4.76001 36.7008Z" stroke="#7942F9" stroke-width="1.5" stroke-linecap="round" stroke-linejoin="round"/>
</svg>
