<svg width="48" height="48" viewBox="0 0 48 48" fill="none" xmlns="http://www.w3.org/2000/svg">
<path d="M24.32 21.74C24.12 21.72 23.88 21.72 23.66 21.74C18.9 21.58 15.12 17.68 15.12 12.88C15.12 7.98 19.08 4 24 4C28.9 4 32.88 7.98 32.88 12.88C32.86 17.68 29.08 21.58 24.32 21.74Z" stroke="#7942F9" stroke-width="1.5" stroke-linecap="round" stroke-linejoin="round"/>
<path d="M14.32 29.12C9.48 32.36 9.48 37.64 14.32 40.86C19.82 44.54 28.84 44.54 34.34 40.86C39.18 37.62 39.18 32.34 34.34 29.12C28.86 25.46 19.84 25.46 14.32 29.12Z" stroke="#7942F9" stroke-width="1.5" stroke-linecap="round" stroke-linejoin="round"/>
</svg>
