<svg width="152" height="10" viewBox="0 0 152 10" fill="none" xmlns="http://www.w3.org/2000/svg">
<path fill-rule="evenodd" clip-rule="evenodd" d="M40.5132 5.88897C33.9829 6.79265 26.4433 7.69199 19.1902 7.91655C12.9909 8.10822 7.00284 7.81052 2.10157 6.54389C1.41067 6.36555 0.545468 6.48815 0.171821 6.8182C-0.202396 7.14797 0.0550533 7.56095 0.745959 7.73957C6.09264 9.12092 12.6121 9.48223 19.3742 9.2729C26.7577 9.04453 34.4334 8.1392 41.0947 7.22246C41.8676 7.96983 43.4682 8.66662 46.2876 9.18072C50.6182 9.97049 56.531 9.9607 62.76 9.51566C71.7942 8.87052 81.5124 7.33203 87.7607 6.23886C88.0171 6.19427 88.3987 6.12332 88.8657 6.0298C89.0081 6.17987 89.1676 6.32776 89.3442 6.47294C90.8764 7.73821 93.5876 8.76124 96.3501 9.12663C113.87 11.4435 134.319 8.66744 150.967 6.40823C151.719 6.30573 152.158 5.92948 151.947 5.56871C151.731 5.20795 150.945 4.99833 150.187 5.10083C134.005 7.29697 114.138 10.0678 97.1076 7.81649C95.0115 7.53919 92.9724 6.75296 91.8105 5.79273C91.6795 5.68561 91.5656 5.57605 91.4573 5.46486C93.7528 4.92194 96.4526 4.16506 97.905 3.3549C99.3973 2.52435 99.7676 1.63779 98.4689 0.800443C97.3525 0.0846181 95.6609 0.0237187 93.9008 0.394817C92.0041 0.792286 90.0505 1.72151 89.4182 2.15759C88.2335 2.9721 87.8576 3.85568 88.074 4.71722C87.5158 4.82977 87.0624 4.9135 86.7828 4.96244C80.6711 6.03142 71.1722 7.54029 62.3385 8.17129C56.6546 8.57746 51.2555 8.63155 47.3038 7.91111C45.6184 7.60363 44.5048 7.24477 43.9005 6.82827C45.0932 6.65808 46.2432 6.49061 47.3419 6.33075C49.5149 6.01457 54.0391 5.49123 57.2715 4.55846C59.842 3.8168 61.5849 2.80791 61.4836 1.54318C61.4317 0.89342 60.644 0.459785 59.3903 0.216736C57.5169 -0.146206 54.2772 0.0294162 53.0708 0.151756C49.4118 0.522039 44.5282 2.05483 42.112 3.782C41.1477 4.47118 40.5741 5.19217 40.5132 5.88897ZM43.5189 5.46431C44.5527 5.31587 45.5517 5.17015 46.5115 5.03041C48.5398 4.73516 52.7797 4.26618 55.7979 3.39512C57.3962 2.93404 58.7011 2.38161 58.6379 1.5951C58.6328 1.53393 58.5057 1.51654 58.3935 1.49153C58.2198 1.45319 58.021 1.42681 57.8091 1.40615C56.3755 1.26641 54.4497 1.40153 53.6614 1.48145C50.5914 1.7922 46.5075 3.08765 44.4803 4.53697C44.052 4.84309 43.7108 5.15492 43.5189 5.46431ZM90.8877 4.09138C92.2263 3.7627 93.6274 3.36522 94.7324 2.93268C95.3191 2.70295 95.8147 2.46671 96.1279 2.22149C96.3899 2.01868 96.4924 1.81096 96.1792 1.61032C96.0539 1.52903 95.8659 1.52741 95.6723 1.54263C95.4672 1.55895 95.2565 1.59374 95.0457 1.63859C93.6559 1.93058 92.2206 2.61269 91.7592 2.93268C91.2181 3.30378 90.9504 3.69636 90.8877 4.09138Z" fill="#7942F9"/>
</svg>
