<svg width="48" height="48" viewBox="0 0 48 48" fill="none" xmlns="http://www.w3.org/2000/svg">
<path d="M13.8 41.2C16.8 43 20.4 44 24 44C35 44 44 35 44 24C44 13 35 4 24 4C13 4 4 13 4 24C4 27.6 5 31 6.6 34L4.44044 42.306C4.24572 43.0549 4.93892 43.7317 5.68299 43.5191L13.8 41.2Z" stroke="#7942F9" stroke-width="1.5" stroke-miterlimit="10" stroke-linecap="round" stroke-linejoin="round"/>
<path d="M33 29.697C33 30.021 32.9279 30.354 32.7747 30.678C32.6214 31.002 32.4231 31.308 32.1617 31.596C31.7201 32.082 31.2334 32.433 30.6835 32.658C30.1427 32.883 29.5568 33 28.9259 33C28.0065 33 27.024 32.784 25.9875 32.343C24.9509 31.902 23.9144 31.308 22.8868 30.561C21.8503 29.805 20.8678 28.968 19.9304 28.041C19.002 27.105 18.1637 26.124 17.4156 25.098C16.6765 24.072 16.0816 23.046 15.649 22.029C15.2163 21.003 15 20.022 15 19.086C15 18.474 15.1082 17.889 15.3245 17.349C15.5408 16.8 15.8833 16.296 16.361 15.846C16.9379 15.279 17.5689 15 18.2359 15C18.4882 15 18.7406 15.054 18.9659 15.162C19.2003 15.27 19.4076 15.432 19.5699 15.666L21.661 18.609C21.8232 18.834 21.9404 19.041 22.0215 19.239C22.1027 19.428 22.1477 19.617 22.1477 19.788C22.1477 20.004 22.0846 20.22 21.9584 20.427C21.8413 20.634 21.67 20.85 21.4537 21.066L20.7687 21.777C20.6695 21.876 20.6244 21.993 20.6244 22.137C20.6244 22.209 20.6335 22.272 20.6515 22.344C20.6785 22.416 20.7056 22.47 20.7236 22.524C20.8858 22.821 21.1652 23.208 21.5618 23.676C21.9675 24.144 22.4001 24.621 22.8688 25.098C23.3555 25.575 23.8242 26.016 24.302 26.421C24.7707 26.817 25.1582 27.087 25.4647 27.249C25.5098 27.267 25.5638 27.294 25.6269 27.321C25.699 27.348 25.7712 27.357 25.8523 27.357C26.0055 27.357 26.1227 27.303 26.2218 27.204L26.9069 26.529C27.1322 26.304 27.3485 26.133 27.5558 26.025C27.7631 25.899 27.9705 25.836 28.1958 25.836C28.3671 25.836 28.5473 25.872 28.7456 25.953C28.9439 26.034 29.1512 26.151 29.3766 26.304L32.36 28.419C32.5944 28.581 32.7566 28.77 32.8558 28.995C32.9459 29.22 33 29.445 33 29.697Z" stroke="#7942F9" stroke-width="1.5" stroke-miterlimit="10"/>
</svg>
